<svg width="512" height="512" viewBox="0 0 512 512" fill="none" xmlns="http://www.w3.org/2000/svg">
<path d="M211.955 79H96.0455C86.6315 79 79 86.6315 79 96.0455V211.955C79 221.368 86.6315 229 96.0455 229H211.955C221.368 229 229 221.368 229 211.955V96.0455C229 86.6315 221.368 79 211.955 79Z" stroke="white" stroke-width="27" stroke-linecap="round" stroke-linejoin="round"/>
<path d="M415.955 79H300.045C290.632 79 283 86.6315 283 96.0455V211.955C283 221.368 290.632 229 300.045 229H415.955C425.368 229 433 221.368 433 211.955V96.0455C433 86.6315 425.368 79 415.955 79Z" stroke="white" stroke-width="27" stroke-linecap="round" stroke-linejoin="round"/>
<path d="M211.955 283H96.0455C86.6315 283 79 290.632 79 300.045V415.955C79 425.368 86.6315 433 96.0455 433H211.955C221.368 433 229 425.368 229 415.955V300.045C229 290.632 221.368 283 211.955 283Z" stroke="white" stroke-width="27" stroke-linecap="round" stroke-linejoin="round"/>
<path d="M415.955 283H300.045C290.632 283 283 290.632 283 300.045V415.955C283 425.368 290.632 433 300.045 433H415.955C425.368 433 433 425.368 433 415.955V300.045C433 290.632 425.368 283 415.955 283Z" stroke="white" stroke-width="27" stroke-linecap="round" stroke-linejoin="round"/>
</svg>
